<svg id="Layer_1" data-name="Layer 1" xmlns="http://www.w3.org/2000/svg" viewBox="0 0 513.28 141"><defs><style>.cls-1{fill:#2b3990;}.cls-2{fill:#00aeef;}.cls-3{fill:#fff;}</style></defs><title>primefs-logo</title><path class="cls-1" d="M112.6,215.24l-.35-.49,31.45-31.37a15.11,15.11,0,0,0,4.5,9.81,15.45,15.45,0,0,0,11.65,4.67,17.42,17.42,0,0,0,17-16.84,15.47,15.47,0,0,0-4.73-11.66l-.1-.11a1.59,1.59,0,0,1-.13-.13q-7.05-7.06-15.78-3.76a16.79,16.79,0,0,0-7,4.07,48.7,48.7,0,0,0-4.56,4l-35.85,35.76-1,1a25.72,25.72,0,0,0,6.32,6.87Z" transform="translate(-46.37 -82.66)"/><path class="cls-1" d="M534.48,82.66H129.1a25.25,25.25,0,0,0-25.17,25.17v46.76l10.28-10.26,1.77-1.76q17-16.92,36.33-19.73a61.76,61.76,0,0,1,7.87-.38q23.69.38,41.4,17.72,17.05,17.53,17.27,41.17t-16.47,40.7h332.1a25.24,25.24,0,0,0,25.17-25.17v-89A25.25,25.25,0,0,0,534.48,82.66Z" transform="translate(-46.37 -82.66)"/><path class="cls-2" d="M224.59,157V105.45H202.42v29.37L161.77,94.18,46.37,203.93l18,19.74c37.24-37.24,59.93-59,97.17-96.23l47.3,47.27,16.08-17.42Z" transform="translate(-46.37 -82.66)"/><path class="cls-3" d="M242.06,105.1h25.59c13.28,0,22.86,8.64,22.86,22.33s-9.58,22.65-22.86,22.65H249.33v29.07h-7.27Zm24.65,38.45c9.9,0,16.32-6,16.32-16.12s-6.42-15.8-16.22-15.8H249.33v31.92Z" transform="translate(-46.37 -82.66)"/><path class="cls-3" d="M305.05,105.1H327c7.58,0,11,.74,13.9,2,6.95,3.06,11.17,10.11,11.17,19.07,0,10-5.69,17.69-14,20v.21a30.28,30.28,0,0,1,1.89,3L356,179.15h-8.32L331,148H312.32v31.18h-7.27Zm24.86,36.34c8.95,0,14.64-5.79,14.64-15.06,0-6.11-2.43-10.64-6.74-13-2.22-1.16-4.85-1.79-10.54-1.79H312.32v29.81Z" transform="translate(-46.37 -82.66)"/><path class="cls-3" d="M371.2,105.1h7.26v74.05H371.2Z" transform="translate(-46.37 -82.66)"/><path class="cls-3" d="M403.53,105.1h7.59l19.38,43.5c1.68,3.79,3.58,9.06,3.58,9.06h.21s2-5.27,3.69-9.06l19.38-43.5h7.48l5.9,74.05h-7.27l-4.11-51.82c-.32-4-.21-10.33-.21-10.33h-.21s-2.21,6.53-3.9,10.33l-17.38,38h-6.85l-17.37-38c-1.69-3.69-4-10.54-4-10.54h-.21s.11,6.53-.21,10.54l-4.11,51.82h-7.26Z" transform="translate(-46.37 -82.66)"/><path class="cls-3" d="M489.91,105.1h41.71v6.53H497.17v27H525.3v6.53H497.17v27.49h36.34v6.53h-43.6Z" transform="translate(-46.37 -82.66)"/><path class="cls-2" d="M241.08,191.65h6.12v1.66H243v3h3.53V198H243v4.31h-1.93Z" transform="translate(-46.37 -82.66)"/><path class="cls-2" d="M248.64,191.65h1.93V202.3h-1.93Z" transform="translate(-46.37 -82.66)"/><path class="cls-2" d="M252.9,191.65h1.93l4,6.15a16.21,16.21,0,0,1,.88,1.65h0s-.1-1-.1-1.65v-6.15h1.92V202.3h-1.92l-4-6.14a16.21,16.21,0,0,1-.88-1.65h0s.1,1,.1,1.65v6.14H252.9Z" transform="translate(-46.37 -82.66)"/><path class="cls-2" d="M269.22,199.57h-3.74l-.9,2.73h-2l3.75-10.65h2l3.75,10.65h-2Zm-1.88-6.08s-.24,1-.45,1.65L266,198h2.79l-.95-2.85c-.19-.6-.42-1.65-.42-1.65Z" transform="translate(-46.37 -82.66)"/><path class="cls-2" d="M273.1,191.65H275l4,6.15a15,15,0,0,1,.89,1.65h0s-.11-1-.11-1.65v-6.15h1.92V202.3h-1.92l-4-6.14a15,15,0,0,1-.89-1.65h0s.11,1,.11,1.65v6.14H273.1Z" transform="translate(-46.37 -82.66)"/><path class="cls-2" d="M288.87,191.47a5.53,5.53,0,0,1,3.93,1.45l-.93,1.44a4.72,4.72,0,0,0-2.91-1.12,3.47,3.47,0,0,0-3.57,3.66,3.6,3.6,0,0,0,3.58,3.81,4.57,4.57,0,0,0,3.09-1.35l1,1.39a5.72,5.72,0,0,1-4.18,1.73,5.51,5.51,0,0,1,0-11Z" transform="translate(-46.37 -82.66)"/><path class="cls-2" d="M294.49,191.65h1.94V202.3h-1.94Z" transform="translate(-46.37 -82.66)"/><path class="cls-2" d="M304.05,199.57h-3.74l-.9,2.73h-2l3.75-10.65h2l3.75,10.65h-2Zm-1.88-6.08s-.24,1-.45,1.65l-.94,2.85h2.79l-.95-2.85c-.19-.6-.42-1.65-.42-1.65Z" transform="translate(-46.37 -82.66)"/><path class="cls-2" d="M307.93,191.65h1.94v9h4.6v1.67h-6.54Z" transform="translate(-46.37 -82.66)"/><path class="cls-2" d="M319.15,199.57a4.3,4.3,0,0,0,2.66,1.12c.81,0,1.54-.42,1.54-1.29,0-1.9-5-1.57-5-4.84,0-1.77,1.53-3.09,3.57-3.09a4.53,4.53,0,0,1,3.18,1.14l-.84,1.57a3.89,3.89,0,0,0-2.36-.93,1.43,1.43,0,0,0-1.6,1.28c0,1.89,5,1.42,5,4.83a3.19,3.19,0,0,1-3.51,3.12A5.17,5.17,0,0,1,318.1,201Z" transform="translate(-46.37 -82.66)"/><path class="cls-2" d="M331.62,191.47a5.38,5.38,0,0,1,5.5,5.43,5.51,5.51,0,1,1-11,0A5.38,5.38,0,0,1,331.62,191.47Zm0,9.24a3.61,3.61,0,0,0,3.51-3.81,3.51,3.51,0,1,0-7,0A3.61,3.61,0,0,0,331.62,200.71Z" transform="translate(-46.37 -82.66)"/><path class="cls-2" d="M338.71,191.65h1.94v9h4.6v1.67h-6.54Z" transform="translate(-46.37 -82.66)"/><path class="cls-2" d="M346.14,191.65h1.93v6.82a2.37,2.37,0,0,0,4.73,0v-6.81h1.93v6.82c0,2.39-1.72,4-4.29,4s-4.3-1.62-4.3-4Z" transform="translate(-46.37 -82.66)"/><path class="cls-2" d="M359.11,193.31h-3.49v-1.66h8.92v1.66h-3.49v9h-1.94Z" transform="translate(-46.37 -82.66)"/><path class="cls-2" d="M365.58,191.65h1.93V202.3h-1.93Z" transform="translate(-46.37 -82.66)"/><path class="cls-2" d="M374.61,191.47a5.38,5.38,0,0,1,5.5,5.43,5.51,5.51,0,1,1-11,0A5.38,5.38,0,0,1,374.61,191.47Zm0,9.24a3.61,3.61,0,0,0,3.51-3.81,3.51,3.51,0,1,0-7,0A3.61,3.61,0,0,0,374.61,200.71Z" transform="translate(-46.37 -82.66)"/><path class="cls-2" d="M381.7,191.65h1.94l4,6.15a15,15,0,0,1,.89,1.65h0s-.11-1-.11-1.65v-6.15h1.92V202.3h-1.92l-4-6.14a15,15,0,0,1-.89-1.65h0s.11,1,.11,1.65v6.14H381.7Z" transform="translate(-46.37 -82.66)"/><path class="cls-2" d="M393,199.57a4.25,4.25,0,0,0,2.65,1.12c.81,0,1.55-.42,1.55-1.29,0-1.9-5-1.57-5-4.84,0-1.77,1.53-3.09,3.57-3.09a4.53,4.53,0,0,1,3.18,1.14l-.84,1.57a3.88,3.88,0,0,0-2.35-.93c-.9,0-1.61.53-1.61,1.28,0,1.89,5,1.42,5,4.83a3.19,3.19,0,0,1-3.51,3.12,5.13,5.13,0,0,1-3.67-1.46Z" transform="translate(-46.37 -82.66)"/><path class="cls-2" d="M405.07,196.63v0a2.42,2.42,0,0,1-1.35-2.33c0-1.89,1.52-2.8,3.36-2.8a6.7,6.7,0,0,1,1.4.18l-.47,1.53a3.35,3.35,0,0,0-.7-.09,1.46,1.46,0,0,0-1.64,1.42c0,.62.35,1.41,1.62,1.41H409v-1.38h1.9v1.38h1.38v1.68h-1.38v1.26c0,2.18-1.42,3.62-3.82,3.62s-3.81-1.4-3.81-3.2A2.79,2.79,0,0,1,405.07,196.63Zm2,4.08a1.75,1.75,0,0,0,1.92-2V197.6h-1.8c-1.19,0-1.95.53-1.95,1.56A1.65,1.65,0,0,0,407.07,200.71Z" transform="translate(-46.37 -82.66)"/><path class="cls-2" d="M417.67,191.65h2.07l2.09,5.26c.24.63.54,1.56.54,1.56h0s.28-.93.52-1.56l2.09-5.26h2.07l.85,10.65H426l-.45-6c0-.7,0-1.65,0-1.65h0s-.32,1-.57,1.65l-1.73,4.13h-1.69l-1.71-4.13c-.26-.61-.59-1.66-.59-1.66h0s0,1,0,1.66l-.45,6H416.8Z" transform="translate(-46.37 -82.66)"/><path class="cls-2" d="M434.7,191.47a5.38,5.38,0,0,1,5.5,5.43,5.51,5.51,0,1,1-11,0A5.38,5.38,0,0,1,434.7,191.47Zm0,9.24a3.61,3.61,0,0,0,3.51-3.81,3.51,3.51,0,1,0-7,0A3.61,3.61,0,0,0,434.7,200.71Z" transform="translate(-46.37 -82.66)"/><path class="cls-2" d="M441.79,191.65h3.44a4.92,4.92,0,0,1,2.14.3,3,3,0,0,1,1.74,2.91,3.06,3.06,0,0,1-1.8,2.91v0a2.64,2.64,0,0,1,.36.52l2.19,4H447.7l-2.12-4h-1.85v4h-1.94Zm3.67,5a1.55,1.55,0,0,0,1.69-1.68c0-1-.44-1.65-1.95-1.65h-1.47v3.33Z" transform="translate(-46.37 -82.66)"/><path class="cls-2" d="M453.49,193.31H450v-1.66h8.92v1.66h-3.49v9h-1.94Z" transform="translate(-46.37 -82.66)"/><path class="cls-2" d="M464.64,191.47a5.76,5.76,0,0,1,3.95,1.35l-.95,1.44a4.59,4.59,0,0,0-2.84-1,3.46,3.46,0,0,0-3.66,3.66,3.56,3.56,0,0,0,3.57,3.81,4,4,0,0,0,2.67-1.11v-1.25h-1.63v-1.66h3.37v5.61h-1.65v-.51c0-.23,0-.45,0-.45h0a4.51,4.51,0,0,1-3.09,1.14,5.24,5.24,0,0,1-5.22-5.52A5.37,5.37,0,0,1,464.64,191.47Z" transform="translate(-46.37 -82.66)"/><path class="cls-2" d="M476.19,199.57h-3.74l-.9,2.73h-2l3.75-10.65h2l3.75,10.65h-2Zm-1.88-6.08s-.24,1-.45,1.65l-.94,2.85h2.79l-.95-2.85c-.19-.6-.42-1.65-.42-1.65Z" transform="translate(-46.37 -82.66)"/><path class="cls-2" d="M484.78,191.47a5.8,5.8,0,0,1,4,1.35l-1,1.44a4.58,4.58,0,0,0-2.83-1,3.45,3.45,0,0,0-3.66,3.66,3.55,3.55,0,0,0,3.56,3.81,4,4,0,0,0,2.67-1.11v-1.25h-1.63v-1.66h3.37v5.61h-1.64v-.51c0-.23,0-.45,0-.45h0a4.51,4.51,0,0,1-3.09,1.14,5.25,5.25,0,0,1-5.22-5.52A5.38,5.38,0,0,1,484.78,191.47Z" transform="translate(-46.37 -82.66)"/><path class="cls-2" d="M491,191.65h6.37v1.66H493v2.79h3.59v1.67H493v2.86h4.68v1.67H491Z" transform="translate(-46.37 -82.66)"/><path class="cls-2" d="M499.53,199.57a4.25,4.25,0,0,0,2.65,1.12c.81,0,1.55-.42,1.55-1.29,0-1.9-5-1.57-5-4.84,0-1.77,1.53-3.09,3.57-3.09a4.53,4.53,0,0,1,3.18,1.14l-.84,1.57a3.89,3.89,0,0,0-2.36-.93,1.43,1.43,0,0,0-1.6,1.28c0,1.89,5,1.42,5,4.83a3.19,3.19,0,0,1-3.51,3.12,5.13,5.13,0,0,1-3.67-1.46Z" transform="translate(-46.37 -82.66)"/><path class="cls-2" d="M510.49,191.65h1.93v9H517v1.67h-6.54Z" transform="translate(-46.37 -82.66)"/><path class="cls-2" d="M519.55,193.31h-3.5v-1.66H525v1.66h-3.49v9h-1.94Z" transform="translate(-46.37 -82.66)"/><path class="cls-2" d="M526,191.65h3.63c3.29,0,5.43,1.95,5.43,5.31s-2.14,5.34-5.43,5.34H526Zm3.53,9c2.16,0,3.54-1.27,3.54-3.67a3.31,3.31,0,0,0-3.54-3.65H528v7.32Z" transform="translate(-46.37 -82.66)"/></svg>